<mxfile host="Electron" agent="Mozilla/5.0 (Windows NT 10.0; Win64; x64) AppleWebKit/537.36 (KHTML, like Gecko) draw.io/24.7.8 Chrome/128.0.6613.36 Electron/32.0.1 Safari/537.36" version="24.7.8">
  <diagram name="Page-1" id="FE_O_PWVz-_RlJzXBYbE">
    <mxGraphModel dx="1050" dy="621" grid="1" gridSize="10" guides="1" tooltips="1" connect="1" arrows="1" fold="1" page="1" pageScale="1" pageWidth="1100" pageHeight="850" math="0" shadow="0">
      <root>
        <mxCell id="0" />
        <mxCell id="1" parent="0" />
        <mxCell id="qZVkvG5m62VoMBcFdrKC-13" value="" style="rounded=0;whiteSpace=wrap;html=1;strokeColor=none;" parent="1" vertex="1">
          <mxGeometry x="440" y="190" width="300" height="290" as="geometry" />
        </mxCell>
        <mxCell id="qZVkvG5m62VoMBcFdrKC-1" value="&lt;b style=&quot;&quot;&gt;&lt;font color=&quot;#ff2f0f&quot;&gt;中&amp;nbsp; &amp;nbsp; &amp;nbsp;&lt;/font&gt;&lt;/b&gt;" style="html=1;shape=mxgraph.basic.isocube;isoAngle=15;direction=north;fillColor=#6666FF;gradientColor=#666666;" parent="1" vertex="1">
          <mxGeometry x="570" y="310" width="50" height="60" as="geometry" />
        </mxCell>
        <mxCell id="qZVkvG5m62VoMBcFdrKC-3" value="&lt;b style=&quot;&quot;&gt;&lt;font color=&quot;#ff2f0f&quot;&gt;右&amp;nbsp; &amp;nbsp; &amp;nbsp;&amp;nbsp;&lt;/font&gt;&lt;/b&gt;" style="html=1;shape=mxgraph.basic.isocube;isoAngle=15;direction=north;fillColor=#0066CC;" parent="1" vertex="1">
          <mxGeometry x="656" y="310" width="50" height="60" as="geometry" />
        </mxCell>
        <mxCell id="qZVkvG5m62VoMBcFdrKC-4" value="&lt;b style=&quot;&quot;&gt;&lt;font color=&quot;#ff2f0f&quot;&gt;左&amp;nbsp; &amp;nbsp; &amp;nbsp;&lt;/font&gt;&lt;/b&gt;" style="html=1;shape=mxgraph.basic.isocube;isoAngle=15;direction=north;fillColor=#0066CC;" parent="1" vertex="1">
          <mxGeometry x="480" y="310" width="50" height="60" as="geometry" />
        </mxCell>
        <mxCell id="qZVkvG5m62VoMBcFdrKC-5" value="&lt;b style=&quot;&quot;&gt;&lt;font color=&quot;#ff2f0f&quot;&gt;上&amp;nbsp; &amp;nbsp; &amp;nbsp;&amp;nbsp;&lt;/font&gt;&lt;/b&gt;" style="html=1;shape=mxgraph.basic.isocube;isoAngle=15;direction=north;fillColor=#4D9900;" parent="1" vertex="1">
          <mxGeometry x="570" y="220" width="50" height="60" as="geometry" />
        </mxCell>
        <mxCell id="qZVkvG5m62VoMBcFdrKC-6" value="&lt;b style=&quot;&quot;&gt;&lt;font color=&quot;#ff2f0f&quot;&gt;下&amp;nbsp; &amp;nbsp; &amp;nbsp;&lt;/font&gt;&lt;/b&gt;" style="html=1;shape=mxgraph.basic.isocube;isoAngle=15;direction=north;fillColor=#4D9900;" parent="1" vertex="1">
          <mxGeometry x="570" y="395" width="50" height="60" as="geometry" />
        </mxCell>
        <mxCell id="qZVkvG5m62VoMBcFdrKC-7" value="&lt;b style=&quot;&quot;&gt;&lt;font color=&quot;#ff2f0f&quot;&gt;右&amp;nbsp; &amp;nbsp; &amp;nbsp;&amp;nbsp;&lt;/font&gt;&lt;/b&gt;&lt;div&gt;&lt;b style=&quot;&quot;&gt;&lt;font color=&quot;#ff2f0f&quot;&gt;上&amp;nbsp; &amp;nbsp; &amp;nbsp;&amp;nbsp;&lt;/font&gt;&lt;/b&gt;&lt;br&gt;&lt;/div&gt;" style="html=1;shape=mxgraph.basic.isocube;isoAngle=15;direction=north;fillColor=#999999;" parent="1" vertex="1">
          <mxGeometry x="656" y="220" width="50" height="60" as="geometry" />
        </mxCell>
        <mxCell id="qZVkvG5m62VoMBcFdrKC-8" value="&lt;b style=&quot;&quot;&gt;&lt;font color=&quot;#ff2f0f&quot;&gt;右&amp;nbsp; &amp;nbsp; &amp;nbsp;&amp;nbsp;&lt;/font&gt;&lt;/b&gt;&lt;div&gt;&lt;font color=&quot;#ff2f0f&quot;&gt;&lt;b style=&quot;&quot;&gt;下&lt;/b&gt;&amp;nbsp; &amp;nbsp; &amp;nbsp;&amp;nbsp;&lt;/font&gt;&lt;br&gt;&lt;/div&gt;" style="html=1;shape=mxgraph.basic.isocube;isoAngle=15;direction=north;fillColor=#7EA6E0;" parent="1" vertex="1">
          <mxGeometry x="656" y="395" width="50" height="60" as="geometry" />
        </mxCell>
        <mxCell id="qZVkvG5m62VoMBcFdrKC-9" value="&lt;b style=&quot;&quot;&gt;&lt;font color=&quot;#ff2f0f&quot;&gt;左&amp;nbsp; &amp;nbsp; &amp;nbsp;&lt;/font&gt;&lt;/b&gt;&lt;div&gt;&lt;b style=&quot;&quot;&gt;&lt;font color=&quot;#ff2f0f&quot;&gt;下&amp;nbsp; &amp;nbsp; &amp;nbsp;&lt;/font&gt;&lt;/b&gt;&lt;/div&gt;" style="html=1;shape=mxgraph.basic.isocube;isoAngle=15;direction=north;fillColor=#7EA6E0;" parent="1" vertex="1">
          <mxGeometry x="480" y="395" width="50" height="60" as="geometry" />
        </mxCell>
        <mxCell id="qZVkvG5m62VoMBcFdrKC-10" value="&lt;b style=&quot;&quot;&gt;&lt;font color=&quot;#ff2f0f&quot;&gt;左&amp;nbsp; &amp;nbsp; &amp;nbsp;&amp;nbsp;&lt;/font&gt;&lt;/b&gt;&lt;div&gt;&lt;font color=&quot;#ff2f0f&quot;&gt;&lt;b style=&quot;&quot;&gt;上&amp;nbsp;&lt;/b&gt; &amp;nbsp; &amp;nbsp;&amp;nbsp;&lt;/font&gt;&lt;br&gt;&lt;/div&gt;" style="html=1;shape=mxgraph.basic.isocube;isoAngle=15;direction=north;fillColor=#999999;" parent="1" vertex="1">
          <mxGeometry x="480" y="220" width="50" height="60" as="geometry" />
        </mxCell>
        <mxCell id="qZVkvG5m62VoMBcFdrKC-11" value="&lt;font color=&quot;#ff3721&quot;&gt;&lt;b&gt;中&amp;nbsp;&lt;/b&gt;&lt;/font&gt;&lt;div&gt;&lt;font color=&quot;#ff3721&quot;&gt;&lt;b&gt;外&amp;nbsp;&lt;/b&gt;&lt;/font&gt;&lt;/div&gt;" style="html=1;shape=mxgraph.basic.isocube;isoAngle=15;direction=north;fillColor=#999999;dashed=1;dashPattern=1 1;" parent="1" vertex="1">
          <mxGeometry x="535" y="360" width="30" height="50" as="geometry" />
        </mxCell>
        <mxCell id="qZVkvG5m62VoMBcFdrKC-12" value="&lt;font color=&quot;#ff3721&quot;&gt;&lt;b&gt;中&amp;nbsp;&lt;/b&gt;&lt;/font&gt;&lt;div&gt;&lt;font color=&quot;#ff3721&quot;&gt;&lt;b&gt;内&amp;nbsp;&lt;/b&gt;&lt;/font&gt;&lt;/div&gt;" style="html=1;shape=mxgraph.basic.isocube;isoAngle=15;direction=north;fillColor=#999999;dashed=1;dashPattern=1 1;" parent="1" vertex="1">
          <mxGeometry x="620" y="280" width="30" height="50" as="geometry" />
        </mxCell>
      </root>
    </mxGraphModel>
  </diagram>
</mxfile>
